# xmcd
#
# Track frame offsets: 
#        150
#        9722
#        17580
#        26010
#        43667
#        53560
#        65352
#        72942
#        89154
#        107370
#        119440
#        138000
#        150467
#        170667
#
# Disc length: 2508 seconds
#
# Revision: 3
# Processed by: cddbd v1.5.2PL0 Copyright (c) Steve Scherf et al.
# Submitted via: ExactAudioCopy v0.95b4
#
DISCID=b209ca0e
DTITLE=許\志安 - 真心真意許\志安'99演唱會[CD2]
DYEAR=1999
DGENRE=Pop
TTITLE0=越吻越傷心-許\志安+蘇永康+梁漢文
TTITLE1=Monica
TTITLE2=冰山大火-許\志安+蘇永康+梁漢文
TTITLE3=真心真意
TTITLE4=我願意
TTITLE5=怎麼捨得你
TTITLE6=默契
TTITLE7=完完全全為你
TTITLE8=第六元素
TTITLE9=火熱動感La La La
TTITLE10=教我如何不愛他-葉德嫻+許\志安
TTITLE11=赤子-葉德嫻
TTITLE12=唯獨你是不可取替
TTITLE13=愛你
EXTD=
EXTT0=
EXTT1=
EXTT2=
EXTT3=
EXTT4=
EXTT5=
EXTT6=
EXTT7=
EXTT8=
EXTT9=
EXTT10=
EXTT11=
EXTT12=
EXTT13=
PLAYORDER=
